<svg width="22" height="21" viewBox="0 0 22 21" fill="none" xmlns="http://www.w3.org/2000/svg">
<g clip-path="url(#clip0_152_27008)">
<path d="M21.9319 6.17093C21.8784 5.05325 21.6924 4.28998 21.4205 3.62219C21.1444 2.92156 20.7113 2.28694 20.1517 1.76239C19.6024 1.22823 18.9374 0.814705 18.2034 0.550987C17.5036 0.291595 16.7042 0.114235 15.5333 0.063446C14.3602 0.0121765 13.9854 0 10.998 0C8.01071 0 7.63591 0.0121765 6.46283 0.0631256C5.29193 0.114235 4.49248 0.291756 3.79272 0.551308C3.05873 0.814865 2.39389 1.22823 1.84436 1.76239C1.28476 2.28678 0.851547 2.9214 0.575272 3.62203C0.303528 4.28998 0.117722 5.05325 0.0645142 6.17077C0.0108032 7.29069 -0.00195312 7.64829 -0.00195312 10.4998C-0.00195312 13.3515 0.0108032 13.7093 0.0645142 14.8291C0.117889 15.9466 0.303864 16.7099 0.575775 17.3778C0.851883 18.0783 1.28493 18.7131 1.84453 19.2374C2.39389 19.7716 3.0589 20.185 3.79289 20.4485C4.49248 20.7082 5.2921 20.8856 6.463 20.9367C7.63625 20.9878 8.01088 20.9998 10.9982 20.9998C13.9855 20.9998 14.3604 20.9878 15.5334 20.9367C16.7043 20.8856 17.5038 20.7082 18.2035 20.4485C19.6811 19.9032 20.8491 18.7882 21.4205 17.3778C21.6926 16.7099 21.8784 15.9466 21.9319 14.8291C21.9853 13.7092 21.998 13.3515 21.998 10.5C21.998 7.64829 21.9853 7.29069 21.9319 6.17093ZM19.9518 14.743C19.903 15.7668 19.7237 16.3228 19.5732 16.6927C19.2031 17.6085 18.4449 18.3322 17.4855 18.6855C17.0979 18.8292 16.5155 19.0003 15.443 19.047C14.2833 19.0976 13.9354 19.1082 10.998 19.1082C8.06056 19.1082 7.71278 19.0976 6.55296 19.047C5.48059 19.0003 4.89816 18.8292 4.51044 18.6855C4.03275 18.5171 3.60054 18.2487 3.24571 17.9C2.88031 17.5613 2.59917 17.1489 2.42276 16.6927C2.2722 16.3228 2.09294 15.7668 2.0441 14.743C1.99123 13.6359 1.97998 13.3038 1.97998 10.5002C1.97998 7.69636 1.99123 7.36439 2.0441 6.25713C2.09311 5.23334 2.2722 4.67738 2.42276 4.30744C2.59917 3.8513 2.88048 3.43874 3.24571 3.10004C3.60054 2.75125 4.03275 2.48289 4.5106 2.31466C4.89816 2.17078 5.48059 1.99983 6.55313 1.95305C7.71295 1.90258 8.0609 1.89185 10.998 1.89185H10.9979C13.935 1.89185 14.283 1.90258 15.443 1.95321C16.5155 1.99983 17.0978 2.17094 17.4855 2.31466C17.9632 2.48305 18.3954 2.75141 18.7502 3.10004C19.1156 3.43874 19.3968 3.8513 19.573 4.30744C19.7237 4.67738 19.903 5.23334 19.9518 6.25713C20.0047 7.36423 20.0159 7.69636 20.0159 10.5C20.0159 13.3038 20.0049 13.6358 19.9518 14.743Z" fill="url(#paint0_linear_152_27008)"/>
<path d="M10.9982 5.10938C7.87856 5.10938 5.34961 7.52353 5.34961 10.5013C5.34961 13.4791 7.87856 15.8931 10.9982 15.8931C14.1179 15.8931 16.6469 13.4791 16.6469 10.5013C16.6469 7.52353 14.1179 5.10938 10.9982 5.10938ZM10.9982 14.0013C8.97325 14.0011 7.33154 12.4342 7.33171 10.5012C7.33171 8.56831 8.97325 7.00122 10.9983 7.00122C13.0234 7.00138 14.6649 8.56831 14.6649 10.5012C14.6649 12.4342 13.0232 14.0013 10.9982 14.0013Z" fill="url(#paint1_linear_152_27008)"/>
<path d="M18.1889 4.89683C18.1889 5.59265 17.5979 6.15678 16.8689 6.15678C16.1398 6.15678 15.5488 5.59265 15.5488 4.89683C15.5488 4.20084 16.1398 3.63672 16.8689 3.63672C17.5979 3.63672 18.1889 4.20084 18.1889 4.89683Z" fill="url(#paint2_linear_152_27008)"/>
</g>
<defs>
<linearGradient id="paint0_linear_152_27008" x1="1.84425" y1="19.2375" x2="19.3008" y2="0.949743" gradientUnits="userSpaceOnUse">
<stop stop-color="#FFD600"/>
<stop offset="0.5" stop-color="#FF0100"/>
<stop offset="1" stop-color="#D800B9"/>
</linearGradient>
<linearGradient id="paint1_linear_152_27008" x1="7.00408" y1="14.3139" x2="14.6211" y2="6.33416" gradientUnits="userSpaceOnUse">
<stop stop-color="#FF6400"/>
<stop offset="0.5" stop-color="#FF0100"/>
<stop offset="1" stop-color="#FD0056"/>
</linearGradient>
<linearGradient id="paint2_linear_152_27008" x1="15.9355" y1="5.78769" x2="17.7155" y2="3.92299" gradientUnits="userSpaceOnUse">
<stop stop-color="#F30072"/>
<stop offset="1" stop-color="#E50097"/>
</linearGradient>
<clipPath id="clip0_152_27008">
<rect width="22" height="21" fill="white" transform="translate(-0.00195312)"/>
</clipPath>
</defs>
</svg>
