<svg width="24" height="23" viewBox="0 0 24 23" fill="none" xmlns="http://www.w3.org/2000/svg">
<g clip-path="url(#clip0_152_27006)">
<path d="M20.6535 13.2683C21.4496 14.0132 22.2898 14.714 23.0039 15.534C23.3193 15.8984 23.6179 16.2744 23.8464 16.6973C24.1701 17.2984 23.8769 17.96 23.3144 17.9959L19.818 17.9943C18.9162 18.066 18.1968 17.7182 17.592 17.1273C17.1079 16.6547 16.6596 16.1518 16.1941 15.6633C16.0033 15.4637 15.8035 15.2758 15.5649 15.1273C15.0877 14.8304 14.6733 14.9213 14.4006 15.3984C14.1228 15.8836 14.0597 16.4209 14.0325 16.9617C13.995 17.7507 13.7461 17.9581 12.9191 17.9942C11.1517 18.0741 9.47433 17.8179 7.91607 16.9634C6.54226 16.2102 5.47698 15.1467 4.54969 13.9429C2.7444 11.5987 1.36182 9.0228 0.119257 6.37475C-0.160446 5.77814 0.0441162 5.45789 0.731022 5.44653C1.87163 5.42528 3.0121 5.42681 4.15407 5.445C4.61766 5.45151 4.92455 5.70631 5.10357 6.12602C5.72068 7.58018 6.47579 8.96369 7.4236 10.2461C7.67602 10.5875 7.93341 10.9289 8.29988 11.1692C8.70535 11.4353 9.01407 11.3471 9.2048 10.9142C9.32584 10.6398 9.37885 10.3441 9.40613 10.0502C9.49651 9.03889 9.50841 8.02927 9.34993 7.02149C9.25262 6.39254 8.88296 5.98537 8.22807 5.86637C7.8939 5.80568 7.94363 5.6865 8.10544 5.50371C8.38646 5.18845 8.65079 4.99219 9.17771 4.99219H13.1292C13.7513 5.10984 13.8894 5.37766 13.9746 5.9775L13.9779 10.1839C13.9711 10.4161 14.099 11.1052 14.5354 11.2589C14.8847 11.3683 15.115 11.1005 15.3246 10.8882C16.2707 9.92596 16.9459 8.78872 17.5492 7.61113C17.8169 7.09332 18.0471 6.5556 18.2701 6.01829C18.4354 5.61961 18.6948 5.42344 19.1634 5.43211L22.9665 5.43534C23.0792 5.43534 23.1933 5.43691 23.3026 5.45484C23.9434 5.55951 24.119 5.82369 23.9211 6.4234C23.6092 7.36429 23.0024 8.1484 22.4091 8.9361C21.7749 9.77709 21.0966 10.5893 20.4676 11.4353C19.8898 12.2079 19.9357 12.5973 20.6535 13.2683Z" fill="#436EAB"/>
</g>
<defs>
<clipPath id="clip0_152_27006">
<rect width="24" height="23" fill="white" transform="translate(-0.00195312)"/>
</clipPath>
</defs>
</svg>
