<svg width="30" height="30" viewBox="0 0 30 30" fill="none" xmlns="http://www.w3.org/2000/svg">
<rect width="30" height="30" rx="5" fill="#202B49"/>
<path d="M20.6868 17.2848C20.3071 16.9805 19.8627 16.7921 19.4135 16.654V10.3567C19.4135 9.01602 18.9323 7.88582 18.022 7.0883C17.221 6.38651 16.1475 6 14.9993 6C13.8511 6 12.7776 6.38651 11.9765 7.08826C11.0662 7.88578 10.585 9.01598 10.585 10.3567V16.654C10.1359 16.7921 9.69148 16.9805 9.31172 17.2848C8.57625 17.8742 8.21875 18.7763 8.21875 20.0427V23.5781C8.21875 23.8111 8.40764 24 8.64063 24H21.358C21.591 24 21.7799 23.8111 21.7799 23.5781V20.0427C21.7798 18.7763 21.4223 17.8742 20.6868 17.2848ZM11.4288 10.3567C11.4288 7.94309 13.2796 6.84375 14.9993 6.84375C15.9429 6.84375 16.8189 7.15597 17.466 7.7229C18.1881 8.3555 18.5698 9.26623 18.5698 10.3567V16.4358C18.5591 16.4334 18.5483 16.4308 18.5377 16.4284C17.3311 16.149 16.6911 15.956 16.6075 15.0007C16.8327 14.7923 17.0398 14.5394 17.2241 14.245C17.8505 13.2444 18.1817 11.7977 18.1817 10.0614C18.1817 9.84103 18.0121 9.65783 17.7924 9.64078C17.0627 9.58418 16.366 9.27196 15.8308 8.76156C15.7331 8.66839 15.5967 8.62765 15.4639 8.65187C15.3311 8.67609 15.2179 8.76244 15.1594 8.88411C14.6255 9.99516 13.489 10.713 12.2642 10.7131L12.2417 10.713C12.1297 10.7115 12.0213 10.7563 11.9415 10.8355C11.8617 10.9147 11.8169 11.0225 11.8169 11.1349C11.8169 12.4625 12.1317 13.6071 12.7274 14.445C12.9195 14.7152 13.1382 14.9462 13.3754 15.1337C13.2448 15.9752 12.6094 16.1624 11.4608 16.4283C11.4502 16.4308 11.4395 16.4333 11.4288 16.4358V10.3567H11.4288ZM16.5089 13.7973C16.0813 14.4804 15.5166 14.8565 14.9184 14.8565C14.9184 14.8565 14.9183 14.8565 14.9182 14.8565C13.8859 14.8563 12.7924 13.696 12.6716 11.5359C13.8837 11.4109 14.9883 10.7346 15.6576 9.71394C16.155 10.0769 16.7292 10.3232 17.3326 10.4314C17.2809 12.1974 16.8631 13.2317 16.5089 13.7973ZM14.1428 15.5639C14.3941 15.6533 14.6547 15.7002 14.9181 15.7002H14.9185C15.2383 15.7002 15.5479 15.6345 15.8406 15.508C15.9723 16.0116 16.2562 16.3977 16.7015 16.6795C16.9766 16.8536 17.2936 16.973 17.6239 17.0688C17.2699 18.3599 16.0814 18.942 14.9992 18.942C13.9171 18.942 12.7286 18.3599 12.3745 17.0688C12.7049 16.9729 13.0219 16.8536 13.297 16.6795C13.7257 16.4082 14.005 16.0403 14.1428 15.5639ZM20.9361 23.1562H19.4135V20.8899C19.4135 20.6569 19.2246 20.468 18.9916 20.468C18.7586 20.468 18.5697 20.6569 18.5697 20.8899V23.1562H11.4288V20.8899C11.4288 20.6569 11.2399 20.468 11.0069 20.468C10.7739 20.468 10.585 20.6569 10.585 20.8899V23.1562H9.06247V20.0427C9.06247 17.9003 10.2075 17.5858 11.5555 17.2726C11.7525 18.0104 12.1685 18.6294 12.7727 19.0765C13.3906 19.5339 14.1813 19.7858 14.9992 19.7858C15.8171 19.7858 16.6079 19.5339 17.2258 19.0765C17.8299 18.6293 18.246 18.0104 18.4429 17.2726C19.791 17.5858 20.9361 17.9002 20.9361 20.0427V23.1562Z" fill="white"/>
</svg>
